<?xml version="1.0" encoding="UTF-8"?>
<svg version="1.1" xmlns="http://www.w3.org/2000/svg" width="32" height="32">
<path d="M0 0 C10.56 0 21.12 0 32 0 C32 10.56 32 21.12 32 32 C21.44 32 10.88 32 0 32 C0 21.44 0 10.88 0 0 Z " fill="#010015" transform="translate(0,0)"/>
<path d="M0 0 C0 0.66 0 1.32 0 2 C0.99 1.67 1.98 1.34 3 1 C4.7890625 1.70703125 4.7890625 1.70703125 6.625 2.8125 C7.23601563 3.16957031 7.84703125 3.52664063 8.4765625 3.89453125 C10 5 10 5 11 7 C11.64312889 12.1909689 11.82723939 15.82807754 8.75 20.1875 C6 22 6 22 3.6875 21.8125 C3.130625 21.544375 2.57375 21.27625 2 21 C2 21.66 2 22.32 2 23 C1.34 23 0.68 23 0 23 C-0.33 22.34 -0.66 21.68 -1 21 C-1.33 21.66 -1.66 22.32 -2 23 C-5.4375 22.1875 -5.4375 22.1875 -9 21 C-9.33 20.01 -9.66 19.02 -10 18 C-10.99 17.67 -11.98 17.34 -13 17 C-13.77783427 8.09811896 -13.77783427 8.09811896 -10.875 4 C-7.44070741 1.61092689 -4.24845071 0 0 0 Z " fill="#2F062F" transform="translate(17,4)"/>
<path d="M0 0 C0.99 0.66 1.98 1.32 3 2 C3 2.66 3 3.32 3 4 C3.33 4.33 3.66 4.66 4 5 C4.23192865 6.51469448 4.41215238 8.03754562 4.5625 9.5625 C4.68818359 10.80193359 4.68818359 10.80193359 4.81640625 12.06640625 C4.87699219 12.70449219 4.93757813 13.34257812 5 14 C4.01 14.66 3.02 15.32 2 16 C1.01 15.67 0.02 15.34 -1 15 C-1.33 15.66 -1.66 16.32 -2 17 C-2.33 15.35 -2.66 13.7 -3 12 C-1.68 12.33 -0.36 12.66 1 13 C1 12.34 1 11.68 1 11 C-0.98 11 -2.96 11 -5 11 C-5 11.66 -5 12.32 -5 13 C-5.99 13 -6.98 13 -8 13 C-8 13.99 -8 14.98 -8 16 C-11 16 -11 16 -12.6875 14.875 C-14.53521368 12.23540902 -14.20946395 10.14195927 -14 7 C-13.01 7.495 -13.01 7.495 -12 8 C-11.71125 6.865625 -11.4225 5.73125 -11.125 4.5625 C-10.75375 3.386875 -10.3825 2.21125 -10 1 C-6.87293041 -0.5635348 -3.42017557 -0.39958487 0 0 Z " fill="#691B63" transform="translate(20,7)"/>
<path d="M0 0 C0.99 0.33 1.98 0.66 3 1 C3 1.66 3 2.32 3 3 C3.33 3.33 3.66 3.66 4 4 C4.23192865 5.51469448 4.41215238 7.03754562 4.5625 8.5625 C4.64628906 9.38878906 4.73007812 10.21507812 4.81640625 11.06640625 C4.87699219 11.70449219 4.93757813 12.34257812 5 13 C4.01 13.66 3.02 14.32 2 15 C1.01 14.67 0.02 14.34 -1 14 C-1.33 14.66 -1.66 15.32 -2 16 C-2.33 14.35 -2.66 12.7 -3 11 C-1.68 11.33 -0.36 11.66 1 12 C1 11.34 1 10.68 1 10 C-1.64 9.67 -4.28 9.34 -7 9 C-7 6 -7 6 -5.1875 3.9375 C-3 2 -3 2 0 0 Z " fill="#2756A6" transform="translate(20,8)"/>
<path d="M0 0 C3.65316671 1.24976756 4.78065836 1.67098753 7 5 C7.54607179 8.3913932 7.54546798 11.60837729 7 15 C4.625 18.125 4.625 18.125 2 20 C1.34 20 0.68 20 0 20 C0 19.34 0 18.68 0 18 C0.66 18 1.32 18 2 18 C3.4893086 14.02851041 2.93679487 10.04343086 2 6 C0.5769016 3.09369632 0.5769016 3.09369632 -1 1 C-0.67 0.67 -0.34 0.34 0 0 Z " fill="#062940" transform="translate(21,6)"/>
<path d="M0 0 C2.475 0.99 2.475 0.99 5 2 C5 1.34 5 0.68 5 0 C6.98 0 8.96 0 11 0 C11 0.66 11 1.32 11 2 C9.68 1.67 8.36 1.34 7 1 C7.33 2.32 7.66 3.64 8 5 C9.32 4.67 10.64 4.34 12 4 C12.33 4.66 12.66 5.32 13 6 C11.68 6.33 10.36 6.66 9 7 C9 7.66 9 8.32 9 9 C8.34 9 7.68 9 7 9 C6.67 8.34 6.34 7.68 6 7 C5.67 7.66 5.34 8.32 5 9 C3.35 8.67 1.7 8.34 0 8 C0.37125 7.236875 0.7425 6.47375 1.125 5.6875 C1.41375 4.800625 1.7025 3.91375 2 3 C1.34 2.01 0.68 1.02 0 0 Z " fill="#370D56" transform="translate(10,18)"/>
<path d="M0 0 C4.31095008 0.2535853 6.49714628 0.5845991 9.875 3.375 C13.22272906 7.51043001 13.35922776 10.79119747 13 16 C11.5 18.9375 11.5 18.9375 10 21 C10 19.21943496 10.03380549 17.43751425 10.140625 15.66015625 C10.44261957 10.2690008 10.44261957 10.2690008 8.375 5.4375 C5.56538113 3.73694121 3.25162799 3.29560254 0 3 C0 2.01 0 1.02 0 0 Z " fill="#000F21" transform="translate(17,3)"/>
<path d="M0 0 C0 0.66 0 1.32 0 2 C0.99 1.67 1.98 1.34 3 1 C3 1.66 3 2.32 3 3 C0.36 3.33 -2.28 3.66 -5 4 C-5 4.66 -5 5.32 -5 6 C-5.99 6.495 -5.99 6.495 -7 7 C-7.72693904 8.97888961 -8.39816251 10.97954558 -9 13 C-9.66 12.01 -10.32 11.02 -11 10 C-10.11728545 6.4691418 -9.02559537 4.03839305 -7 1 C-4.59258404 0.33796061 -2.49346035 0 0 0 Z " fill="#482749" transform="translate(17,4)"/>
<path d="M0 0 C-0.61875 0.2475 -1.2375 0.495 -1.875 0.75 C-4.14291141 1.81460222 -4.14291141 1.81460222 -4.9375 4 C-6.39836667 6.74986668 -8.11305462 7.08833304 -11 8 C-10.74438677 5.6568787 -10.40729228 3.32156597 -10 1 C-6.78548731 -0.60725635 -3.56387464 -0.05748185 0 0 Z " fill="#AF4F8A" transform="translate(20,7)"/>
<path d="M0 0 C2.475 0.99 2.475 0.99 5 2 C5 6 5 10 5 14 C4.34 14 3.68 14 3 14 C2.896875 12.783125 2.79375 11.56625 2.6875 10.3125 C2.23780688 6.58930552 1.21617222 4.08337005 -1 1 C-0.67 0.67 -0.34 0.34 0 0 Z " fill="#196667" transform="translate(21,6)"/>
<path d="M0 0 C0.33 0.99 0.66 1.98 1 3 C1.66 3 2.32 3 3 3 C3 2.34 3 1.68 3 1 C4.98 1 6.96 1 9 1 C7 4 7 4 4 5 C1.66700175 5.03954234 -0.66708189 5.04401732 -3 5 C-2.34 4.67 -1.68 4.34 -1 4 C-0.34786708 1.97536745 -0.34786708 1.97536745 0 0 Z " fill="#020424" transform="translate(16,24)"/>
<path d="M0 0 C0.93423645 3.01031744 1.04449911 3.86650268 0 7 C-2.97 6.505 -2.97 6.505 -6 6 C-6 5.01 -6 4.02 -6 3 C-2.66666667 0 -2.66666667 0 0 0 Z " fill="#B088D3" transform="translate(19,11)"/>
<path d="M0 0 C0 0.66 0 1.32 0 2 C0.33 2.33 0.66 2.66 1 3 C1.04063832 4.66617115 1.042721 6.33388095 1 8 C0.01 8.495 0.01 8.495 -1 9 C-1.0825 8.2575 -1.165 7.515 -1.25 6.75 C-2.1396946 3.48778646 -3.48503749 2.19045122 -6 0 C-3 -1 -3 -1 0 0 Z " fill="#3AABA3" transform="translate(23,9)"/>
<path d="M0 0 C2.31 0.33 4.62 0.66 7 1 C7.33 2.32 7.66 3.64 8 5 C5.36 4.34 2.72 3.68 0 3 C0 2.01 0 1.02 0 0 Z " fill="#041D29" transform="translate(17,3)"/>
<path d="M0 0 C3 2 3 2 3.6875 5.125 C3.790625 6.07375 3.89375 7.0225 4 8 C1.525 7.01 1.525 7.01 -1 6 C-0.67 4.02 -0.34 2.04 0 0 Z " fill="#264469" transform="translate(19,11)"/>
<path d="M0 0 C0.2475 0.556875 0.495 1.11375 0.75 1.6875 C2.21606015 4.39971127 4.02989471 6.63587365 6 9 C4.68 8.67 3.36 8.34 2 8 C2 7.34 2 6.68 2 6 C1.01 5.67 0.02 5.34 -1 5 C-0.67 3.35 -0.34 1.7 0 0 Z " fill="#22002C" transform="translate(5,16)"/>
</svg>
